<?xml version="1.0" standalone="no"?>
<!DOCTYPE svg PUBLIC "-//W3C//DTD SVG 20010904//EN"
 "http://www.w3.org/TR/2001/REC-SVG-20010904/DTD/svg10.dtd">
<svg version="1.0" xmlns="http://www.w3.org/2000/svg"
 width="751.000000pt" height="991.000000pt" viewBox="0 0 751.000000 991.000000"
 preserveAspectRatio="xMidYMid meet">

<g transform="translate(0.000000,991.000000) scale(0.100000,-0.100000)"
fill="#000000" stroke="none">
<path d="M2383 7558 l3 -923 27 -123 c71 -322 237 -679 429 -923 194 -247 471
-457 772 -586 143 -60 147 -61 257 -18 262 101 549 295 729 494 269 296 488
760 539 1144 7 50 11 400 11 968 l0 889 -1385 0 -1386 0 4 -922z m2172 768
c28 -12 64 -35 82 -50 44 -37 93 -138 93 -192 0 -34 4 -44 20 -49 34 -11 108
-103 126 -157 24 -74 16 -181 -19 -241 -80 -136 -252 -193 -386 -128 -37 17
-39 17 -74 -1 -55 -28 -142 -34 -211 -14 -44 13 -72 30 -111 67 -68 65 -96
127 -96 218 0 95 27 157 101 224 53 48 57 56 63 106 11 94 90 192 181 225 66
23 172 20 231 -8z m-1482 -42 c40 -9 79 -20 88 -25 10 -5 40 0 80 13 52 17 90
22 199 22 74 1 161 -3 193 -7 l57 -8 0 -355 0 -355 -62 8 c-113 14 -306 7
-378 -14 -64 -18 -66 -18 -130 0 -72 21 -276 28 -387 14 l-63 -8 0 355 0 355
58 6 c31 3 66 7 77 9 61 10 205 4 268 -10z m2007 -1248 c0 -380 -5 -437 -56
-626 -69 -255 -205 -535 -366 -753 -121 -163 -328 -348 -515 -459 -101 -60
-242 -130 -319 -157 l-60 -22 -77 30 c-279 111 -554 306 -745 528 -192 223
-361 555 -441 868 -43 165 -51 263 -51 613 l0 332 1315 0 1315 0 0 -354z"/>
<path d="M4351 8222 c-40 -20 -87 -75 -96 -113 -6 -26 -5 -26 52 -33 32 -4 73
-15 92 -25 32 -17 35 -17 71 0 21 10 63 22 94 25 31 4 56 9 56 11 0 13 -34 80
-48 96 -49 54 -154 73 -221 39z"/>
<path d="M4280 7957 c0 -8 9 -22 20 -32 20 -18 21 -18 34 1 17 22 12 29 -26
38 -20 5 -28 3 -28 -7z"/>
<path d="M4552 7962 c-24 -7 -27 -17 -11 -42 8 -13 12 -11 29 9 32 38 28 45
-18 33z"/>
<path d="M4680 7889 c-14 -23 -44 -55 -66 -71 -37 -26 -42 -35 -46 -78 -3 -26
-14 -67 -25 -90 l-21 -41 26 -10 c15 -6 45 -8 67 -4 146 21 216 193 122 299
l-32 36 -25 -41z"/>
<path d="M4121 7884 c-35 -51 -40 -129 -12 -186 35 -74 115 -116 192 -103 44
8 44 5 15 80 -8 22 -15 56 -16 76 0 31 -6 40 -40 63 -22 14 -52 44 -66 66 -15
22 -32 40 -38 40 -6 0 -22 -16 -35 -36z"/>
<path d="M4410 7751 c0 -5 5 -22 11 -38 l11 -28 13 25 c21 37 18 50 -10 50
-14 0 -25 -4 -25 -9z"/>
<path d="M2853 8183 c-40 -4 -73 -26 -59 -40 3 -3 57 -7 118 -7 62 -1 130 -6
151 -10 34 -8 37 -7 37 12 0 16 -10 24 -37 32 -44 13 -149 20 -210 13z"/>
<path d="M3333 8177 c-52 -15 -72 -32 -56 -48 9 -9 23 -9 58 1 29 8 79 11 140
8 97 -5 120 2 94 27 -20 20 -182 28 -236 12z"/>
<path d="M2843 8073 c-38 -5 -59 -26 -41 -40 9 -7 35 -7 81 -1 55 8 82 7 134
-6 68 -16 83 -15 83 9 0 32 -141 52 -257 38z"/>
<path d="M3318 8064 c-45 -14 -61 -35 -39 -48 5 -3 38 1 74 10 53 13 79 14
134 6 55 -8 71 -7 82 4 19 17 12 24 -36 35 -57 13 -162 10 -215 -7z"/>
<path d="M2825 7963 c-23 -6 -36 -23 -28 -36 2 -4 46 -5 96 -2 69 5 104 3 142
-9 29 -9 53 -12 59 -6 17 17 -3 37 -48 49 -44 11 -182 13 -221 4z"/>
<path d="M3317 7958 c-40 -11 -59 -35 -37 -48 6 -4 33 -1 59 7 30 9 79 13 141
11 79 -2 95 0 95 12 0 8 -13 18 -30 21 -46 10 -186 8 -228 -3z"/>
<path d="M2869 7861 c-63 -9 -82 -17 -76 -34 2 -8 39 -12 113 -12 60 0 128 -4
152 -9 36 -7 42 -6 42 8 0 36 -124 61 -231 47z"/>
<path d="M3345 7856 c-62 -15 -75 -23 -75 -43 0 -13 7 -14 43 -7 23 4 91 8
151 9 78 0 110 4 113 12 10 30 -150 50 -232 29z"/>
<path d="M3133 7243 c-45 -4 -51 -11 -31 -31 9 -9 1 -12 -36 -12 -46 0 -110
-22 -122 -42 -3 -5 6 -18 19 -28 l25 -20 -35 -37 c-72 -77 -68 -69 -49 -98 9
-14 23 -25 31 -25 24 0 17 -18 -12 -37 -16 -9 -30 -18 -32 -20 -9 -6 32 -42
55 -47 15 -4 22 -11 18 -18 -4 -6 -10 -24 -13 -40 l-6 -28 -52 45 c-50 44 -54
52 -88 160 -37 117 -53 145 -84 145 -10 0 -24 7 -31 15 -7 8 -22 15 -33 15
-19 0 -19 -1 -4 -18 20 -22 6 -42 -31 -42 -18 0 -22 -3 -14 -12 14 -17 3 -68
-14 -68 -18 0 -18 -16 0 -23 9 -4 14 -19 13 -42 -1 -31 6 -44 42 -78 24 -23
71 -91 106 -150 67 -114 79 -157 78 -274 0 -54 5 -60 37 -43 16 8 19 5 25 -20
4 -17 4 -54 0 -83 -8 -57 -8 -57 58 2 15 14 51 31 80 37 29 6 66 15 84 19 27
6 33 4 45 -19 l14 -27 24 30 c30 40 40 39 40 -4 0 -39 26 -97 64 -141 l24 -30
-33 -129 c-18 -72 -40 -149 -50 -172 l-17 -43 -75 0 c-75 0 -127 -15 -165 -48
-24 -20 -23 -29 5 -28 22 1 24 -5 11 -38 -6 -15 -4 -17 14 -11 23 7 26 0 22
-39 -1 -10 3 -15 8 -12 5 3 25 -1 44 -9 19 -7 43 -12 54 -10 91 19 174 40 196
51 17 9 32 30 44 61 28 75 96 182 134 213 19 15 61 43 93 63 58 35 58 35 36
50 -29 21 -16 37 54 67 65 28 64 26 43 49 -16 18 -15 20 20 42 26 16 53 23 86
23 53 0 55 2 33 33 -13 19 -13 22 1 27 31 12 44 5 75 -40 17 -26 51 -70 74
-99 l43 -52 -45 -107 -45 -106 -76 0 c-63 0 -82 -4 -121 -27 -25 -14 -49 -31
-53 -37 -14 -20 -8 -27 11 -16 25 13 36 -2 21 -29 -14 -28 -13 -33 9 -22 24
13 32 4 25 -26 -5 -19 -3 -22 10 -17 9 3 23 1 31 -6 20 -16 90 -9 182 19 l72
22 38 71 c34 64 71 103 133 138 12 7 12 11 0 25 -17 21 1 41 55 60 l39 13 -40
20 c-63 32 -81 94 -45 160 l17 34 16 -24 c20 -28 53 -65 119 -135 l50 -52 -17
-58 c-9 -32 -30 -88 -46 -125 l-30 -66 -81 -4 c-68 -2 -88 -7 -117 -28 -53
-38 -67 -63 -30 -53 22 6 26 -8 10 -37 -9 -16 -7 -19 17 -17 24 2 28 -1 25
-22 -3 -18 0 -22 12 -18 8 3 18 2 21 -3 4 -6 22 -10 41 -10 49 0 195 38 215
56 9 8 38 66 64 128 47 110 50 115 102 146 57 35 60 39 41 59 -11 10 -8 16 12
31 14 11 38 22 54 26 l28 6 -28 19 c-16 10 -37 19 -46 19 -10 0 -18 4 -18 9 0
5 -15 18 -34 29 -60 35 -69 67 -77 252 -4 91 -10 181 -14 200 l-7 36 85 12
c222 32 327 118 302 249 -9 48 -59 98 -116 113 -60 17 -134 7 -265 -34 -60
-18 -136 -40 -169 -47 -82 -18 -330 -18 -372 -1 -39 17 -58 58 -44 95 17 44
44 51 182 50 105 -2 131 -5 160 -22 68 -39 160 -47 286 -25 l32 6 -27 23 -27
24 41 -6 c29 -4 59 1 98 16 31 11 73 21 94 21 l37 1 -40 24 c-26 16 -55 25
-83 25 l-42 0 16 24 16 25 -38 -11 c-22 -6 -58 -7 -84 -3 -123 20 -147 21
-184 13 -22 -5 -56 -19 -76 -31 -32 -20 -48 -22 -180 -22 -131 0 -149 -2 -192
-23 -50 -25 -88 -83 -88 -135 0 -84 60 -144 168 -166 123 -26 348 -4 520 50
112 36 228 48 254 27 9 -7 20 -25 23 -40 15 -59 -81 -102 -260 -117 -49 -4
-108 -4 -130 1 -22 4 -143 5 -270 2 -301 -8 -449 11 -472 61 -10 23 -9 26 12
31 22 6 63 41 54 47 -2 2 -16 11 -31 20 -34 21 -35 29 -6 42 37 17 44 39 20
65 -12 13 -24 31 -27 40 -3 9 -17 23 -31 31 l-26 13 26 23 c14 12 26 24 26 27
0 15 -85 46 -125 46 -42 0 -45 2 -36 19 10 17 5 19 -72 26 -91 7 -126 -1 -153
-37 l-18 -24 -26 30 c-24 26 -34 30 -86 32 -32 1 -78 0 -101 -3z m222 -145
c20 27 35 28 84 2 23 -11 55 -18 80 -17 44 1 61 -11 61 -47 0 -11 -7 -27 -16
-37 -13 -15 -14 -23 -3 -52 12 -33 11 -36 -39 -96 -43 -51 -52 -69 -52 -101 0
-21 -4 -42 -10 -45 -37 -23 -110 -6 -110 25 0 10 16 28 36 41 l36 22 -6 63 -6
63 45 26 c25 15 45 29 45 31 0 2 -27 4 -60 4 l-60 0 0 -85 0 -84 -67 -3 -68
-3 38 -23 c26 -17 37 -31 37 -47 0 -28 -8 -34 -51 -40 -50 -6 -69 9 -69 56 0
34 -8 52 -50 105 -51 63 -51 63 -35 94 15 29 15 32 -5 57 -25 32 -25 38 1 64
15 15 28 19 48 14 19 -4 46 2 82 18 l53 23 23 -25 22 -26 16 23z m944 26 c68
-14 24 -24 -104 -24 -187 0 -225 -18 -225 -107 0 -21 7 -46 14 -55 58 -77 343
-74 591 7 237 77 352 52 363 -78 4 -47 1 -57 -23 -85 -49 -59 -138 -92 -293
-111 -41 -5 -75 -11 -78 -13 -2 -3 1 -20 7 -39 6 -19 14 -113 18 -209 8 -197
20 -236 77 -273 41 -26 41 -36 8 -86 -14 -21 -56 -107 -94 -191 -37 -84 -72
-156 -77 -161 -11 -11 -145 -49 -173 -49 -14 0 -20 7 -20 21 0 17 -5 20 -23
17 -20 -4 -23 -1 -19 19 3 18 0 23 -17 23 -17 0 -19 4 -12 23 7 20 16 22 97
27 l89 5 17 35 c24 49 65 157 77 204 12 46 10 50 -76 139 -64 68 -130 153
-182 235 -39 62 -101 116 -115 102 -6 -6 -5 -19 2 -35 9 -20 9 -27 -1 -30 -6
-3 -120 -36 -252 -75 -132 -39 -245 -72 -252 -74 -8 -3 -9 -16 -2 -43 8 -37 5
-45 -114 -243 -68 -113 -131 -226 -141 -253 -10 -26 -25 -51 -34 -56 -17 -9
-191 -51 -209 -51 -6 0 -8 12 -5 26 4 24 2 26 -20 22 -22 -4 -24 -2 -20 25 4
26 2 28 -16 23 -19 -6 -20 -5 -9 18 11 25 16 26 94 26 59 0 86 4 97 15 22 22
54 116 83 240 17 72 33 119 48 135 43 49 65 89 77 138 l11 51 26 -30 27 -30
23 42 c16 28 25 64 29 110 l5 68 28 -14 c40 -21 49 -19 49 13 0 16 18 64 39
108 22 43 43 92 46 107 6 24 11 28 32 22 109 -27 235 -34 568 -31 198 2 370 8
395 14 107 26 164 68 162 123 -3 98 -97 114 -300 50 -207 -66 -484 -81 -585
-32 -72 35 -95 98 -63 176 14 33 37 51 85 66 32 9 227 11 270 3z m-1551 -71
c6 -16 21 -62 33 -103 30 -105 41 -122 112 -181 51 -42 70 -67 105 -137 23
-47 42 -98 42 -114 0 -32 9 -34 50 -13 l30 16 0 -55 c0 -30 2 -61 6 -69 6 -18
-42 -39 -93 -41 -36 -1 -37 0 -107 115 -39 64 -102 171 -141 238 -38 67 -89
141 -112 163 -44 42 -55 68 -29 68 23 0 29 20 12 39 -22 24 -20 40 4 34 24 -6
38 21 20 41 -9 12 -6 15 17 19 15 2 31 5 34 6 4 0 11 -11 17 -26z m652 -383
c28 0 31 -2 24 -22 -10 -32 -22 -38 -82 -38 -62 0 -92 13 -92 40 0 15 7 20 28
20 15 0 34 4 41 9 9 6 22 6 32 0 10 -5 32 -9 49 -9z m837 -336 l40 -35 -20
-39 c-27 -57 -33 -112 -13 -142 15 -23 15 -27 -2 -49 -11 -13 -50 -82 -87
-154 -37 -71 -70 -134 -75 -138 -9 -10 -147 -47 -177 -47 -16 0 -23 6 -23 20
0 13 -7 20 -18 20 -13 0 -18 7 -18 23 1 16 -4 21 -16 19 -14 -2 -16 1 -9 20 7
21 16 23 94 28 47 3 90 10 95 15 16 19 92 203 92 224 0 12 -24 50 -52 85 -29
35 -61 78 -71 95 l-18 31 57 0 c55 0 56 1 50 24 -5 21 -2 25 21 29 84 13 109
8 150 -29z"/>
<path d="M3190 6975 c0 -5 84 -55 93 -55 4 0 7 14 7 30 0 29 -1 30 -50 30 -27
0 -50 -2 -50 -5z"/>
<path d="M5260 4581 c-214 -47 -339 -139 -391 -286 -24 -68 -26 -218 -4 -292
35 -118 139 -224 295 -299 41 -20 149 -64 240 -99 238 -89 299 -125 341 -198
49 -88 17 -215 -69 -272 -77 -51 -116 -59 -287 -59 -137 -1 -173 2 -248 22
-102 27 -162 52 -232 97 -27 17 -56 35 -62 39 -10 6 -13 -22 -13 -127 l0 -135
48 -20 c136 -59 305 -86 527 -86 249 -1 398 36 531 130 101 71 155 163 174
292 25 180 -37 334 -182 448 -79 62 -194 121 -376 194 -246 97 -330 148 -368
221 -31 61 -9 151 49 200 12 11 54 29 92 41 58 19 92 22 205 22 178 0 259 -23
473 -132 4 -2 7 48 7 111 l0 115 -57 21 c-135 49 -220 63 -418 67 -160 3 -204
1 -275 -15z"/>
<path d="M1420 3730 l0 -821 113 3 112 3 5 595 5 595 394 -563 c216 -310 407
-573 425 -586 51 -38 92 -46 237 -46 l139 0 0 820 0 820 -110 0 -110 0 -2
-597 -3 -598 -395 564 c-237 338 -411 576 -434 595 l-38 31 -169 3 -169 3 0
-821z"/>
<path d="M3183 3948 c3 -541 5 -609 21 -663 61 -208 205 -341 429 -396 158
-38 400 -36 562 6 149 39 284 141 348 262 72 138 70 120 74 791 l4 602 -170 0
-170 0 -3 -587 c-4 -575 -4 -589 -26 -654 -54 -162 -167 -240 -348 -241 -188
0 -301 76 -356 241 -22 65 -22 79 -26 654 l-3 587 -170 0 -170 0 4 -602z"/>
<path d="M3390 2345 l0 -195 25 0 25 0 0 195 0 195 -25 0 -25 0 0 -195z"/>
<path d="M2300 2505 c0 -21 5 -25 30 -25 25 0 30 4 30 25 0 21 -5 25 -30 25
-25 0 -30 -4 -30 -25z"/>
<path d="M4370 2505 c0 -20 5 -25 25 -25 20 0 25 5 25 25 0 20 -5 25 -25 25
-20 0 -25 -5 -25 -25z"/>
<path d="M5480 2505 c0 -21 5 -25 30 -25 25 0 30 4 30 25 0 21 -5 25 -30 25
-25 0 -30 -4 -30 -25z"/>
<path d="M1420 2331 l0 -181 30 0 30 0 0 148 0 147 81 -147 c80 -146 81 -148
115 -148 l34 0 0 180 0 180 -25 0 -24 0 -3 -142 -3 -143 -76 140 -76 140 -42
3 -41 3 0 -180z"/>
<path d="M3670 2378 c0 -154 12 -192 70 -220 70 -36 153 -16 190 45 17 28 20
51 20 170 l0 137 -25 0 -25 0 0 -125 c0 -165 -14 -195 -91 -195 -73 0 -89 36
-89 201 l0 119 -25 0 -25 0 0 -132z"/>
<path d="M2133 2483 c-7 -2 -13 -18 -13 -34 0 -26 -4 -29 -30 -29 -23 0 -30
-5 -30 -19 0 -14 8 -21 28 -23 l27 -3 5 -103 c6 -118 17 -135 80 -130 27 2 36
8 38 25 3 17 -1 20 -17 16 -40 -10 -51 13 -51 108 l0 89 36 0 c28 0 35 3 32
18 -2 11 -14 18 -36 20 -29 3 -32 6 -32 38 0 33 -8 39 -37 27z"/>
<path d="M5663 2483 c-7 -2 -13 -18 -13 -34 0 -26 -4 -29 -30 -29 -23 0 -30
-5 -30 -19 0 -14 8 -21 28 -23 27 -3 27 -3 30 -88 1 -47 4 -94 7 -106 5 -24
44 -44 85 -44 25 0 30 4 30 24 0 19 -4 23 -20 19 -39 -10 -50 13 -50 108 l0
89 35 0 c28 0 35 4 35 20 0 16 -7 20 -35 20 -33 0 -35 2 -35 35 0 34 -8 40
-37 28z"/>
<path d="M1832 2408 c-24 -12 -26 -45 -1 -39 57 14 91 13 109 -4 11 -10 20
-26 20 -37 0 -15 -8 -18 -52 -18 -93 0 -145 -54 -118 -120 20 -49 102 -67 150
-33 17 12 25 13 28 5 2 -7 12 -12 23 -12 18 0 19 8 19 106 0 103 -1 106 -29
135 -25 24 -37 29 -78 28 -26 0 -58 -5 -71 -11z m126 -156 c4 -29 -33 -72 -63
-72 -63 0 -75 66 -15 87 50 17 74 12 78 -15z"/>
<path d="M2310 2286 l0 -136 25 0 26 0 -3 133 c-3 128 -4 132 -25 135 -23 3
-23 3 -23 -132z"/>
<path d="M2505 2410 c-44 -18 -69 -58 -72 -118 -5 -69 19 -116 72 -138 100
-41 195 20 195 127 0 52 -30 106 -70 126 -28 14 -95 16 -125 3z m114 -54 c30
-32 37 -85 17 -124 -29 -56 -77 -67 -123 -28 -24 21 -28 32 -28 74 0 40 5 56
24 76 32 34 79 35 110 2z"/>
<path d="M2770 2285 l0 -135 25 0 c25 0 25 1 25 79 0 44 4 91 10 105 12 32 50
51 83 42 34 -8 47 -50 47 -147 0 -78 0 -79 25 -79 25 0 25 1 25 83 0 98 -13
151 -43 172 -27 19 -83 19 -119 1 -23 -12 -27 -12 -32 0 -3 8 -15 14 -26 14
-19 0 -20 -6 -20 -135z"/>
<path d="M3123 2408 c-28 -13 -33 -54 -5 -43 9 4 34 9 55 12 42 6 77 -16 77
-49 0 -15 -8 -18 -52 -18 -93 0 -145 -54 -118 -120 20 -48 88 -64 145 -34 19
10 31 11 33 5 2 -6 12 -11 23 -11 18 0 19 8 19 106 0 103 -1 106 -29 135 -25
24 -37 29 -78 28 -26 0 -58 -5 -70 -11z m122 -162 c0 -41 -44 -74 -82 -60 -51
17 -40 78 15 87 55 9 67 4 67 -27z"/>
<path d="M4047 2413 c-4 -3 -7 -64 -7 -135 l0 -128 24 0 c23 0 24 3 28 90 4
77 7 93 28 115 30 32 73 33 94 3 12 -16 16 -47 16 -115 0 -93 0 -93 25 -93
l25 0 0 106 c0 103 -1 106 -29 135 -37 36 -94 40 -135 8 l-26 -20 0 20 c0 20
-28 30 -43 14z"/>
<path d="M4370 2285 l0 -135 25 0 25 0 0 135 0 135 -25 0 -25 0 0 -135z"/>
<path d="M4480 2411 c0 -8 58 -174 81 -233 9 -22 18 -28 43 -28 31 0 31 1 78
136 l48 135 -27 -3 c-24 -3 -30 -13 -63 -113 l-37 -110 -37 113 c-34 101 -40
112 -62 112 -13 0 -24 -4 -24 -9z"/>
<path d="M4818 2404 c-37 -20 -58 -63 -58 -119 0 -111 70 -162 189 -139 25 5
31 12 31 31 0 20 -4 24 -17 18 -49 -19 -89 -17 -115 6 -15 13 -29 34 -33 47
-6 22 -5 22 91 22 l97 0 -6 47 c-10 87 -99 131 -179 87z m112 -44 c38 -38 27
-50 -50 -50 -38 0 -70 4 -70 9 0 4 9 20 21 35 25 32 70 35 99 6z"/>
<path d="M5070 2285 l0 -135 25 0 c24 0 25 2 25 76 0 88 20 141 56 150 12 3
28 3 33 -1 7 -4 11 4 11 19 0 22 -5 26 -28 26 -15 0 -37 -7 -49 -15 -19 -13
-22 -13 -27 0 -3 8 -15 15 -26 15 -19 0 -20 -6 -20 -135z"/>
<path d="M5275 2395 c-40 -39 -34 -79 18 -115 23 -16 50 -35 60 -42 43 -30
-15 -70 -73 -50 -28 10 -30 9 -30 -12 0 -37 76 -49 130 -21 53 28 52 104 -2
133 -17 9 -42 27 -57 38 -22 19 -24 24 -11 39 10 13 24 16 51 12 28 -4 39 -1
44 11 8 21 -12 32 -63 32 -32 0 -49 -6 -67 -25z"/>
<path d="M5490 2286 l0 -136 25 0 26 0 -3 133 c-3 128 -4 132 -25 135 -23 3
-23 3 -23 -132z"/>
<path d="M5800 2408 c0 -7 21 -71 47 -141 53 -147 52 -175 -5 -192 -46 -13
-45 -45 2 -45 25 0 40 7 58 29 21 25 138 324 138 352 0 6 -10 9 -22 7 -19 -2
-29 -20 -58 -105 -19 -57 -37 -103 -41 -103 -3 0 -20 47 -39 105 -29 95 -35
105 -56 105 -13 0 -24 -6 -24 -12z"/>
<path d="M2618 1922 c-36 -4 -51 -26 -58 -81 -5 -43 -7 -46 -37 -49 -25 -2
-33 -8 -33 -23 0 -15 7 -19 35 -19 l35 0 0 -116 c0 -114 0 -115 23 -112 21 3
22 7 25 116 l3 112 34 0 c28 0 35 4 35 20 0 16 -7 20 -36 20 l-35 0 3 43 c3
39 5 42 36 45 23 2 32 8 32 21 0 21 -21 28 -62 23z"/>
<path d="M3130 1880 c0 -25 4 -30 25 -30 21 0 25 5 25 30 0 25 -4 30 -25 30
-21 0 -25 -5 -25 -30z"/>
<path d="M2905 1886 c-39 -17 -55 -37 -62 -78 -6 -43 21 -77 91 -116 58 -32
71 -50 62 -85 -8 -34 -57 -51 -106 -37 -19 6 -36 10 -37 10 -2 0 -3 -11 -3
-25 0 -30 29 -40 101 -33 70 7 104 41 104 103 0 52 -25 82 -102 124 -83 45
-65 106 31 99 46 -3 51 -1 54 18 2 17 -4 23 -29 28 -45 9 -70 7 -104 -8z"/>
<path d="M2273 1793 c-34 -6 -80 -66 -88 -112 -9 -52 21 -119 64 -144 36 -21
102 -22 142 -1 41 21 73 93 64 143 -17 91 -84 133 -182 114z m80 -44 c49 -22
64 -115 26 -163 -16 -20 -29 -26 -59 -26 -51 0 -80 35 -80 97 0 36 6 50 29 74
32 32 47 35 84 18z"/>
<path d="M3370 1793 c-8 -3 -23 -12 -32 -21 -16 -14 -18 -13 -18 1 0 11 -8 17
-25 17 l-25 0 0 -135 0 -135 25 0 c25 0 25 1 25 79 0 44 4 91 10 105 12 34 54
60 83 52 35 -8 47 -47 47 -146 0 -89 0 -90 25 -90 l25 0 0 100 c0 113 -14 154
-56 170 -27 11 -60 12 -84 3z"/>
<path d="M3642 1787 c-59 -34 -82 -139 -46 -208 29 -56 119 -73 167 -31 16 14
17 13 17 -15 0 -17 -9 -42 -21 -57 -16 -21 -29 -26 -64 -26 -24 0 -55 4 -69
10 -23 9 -26 7 -26 -14 0 -30 16 -36 96 -36 56 0 67 3 96 29 l33 29 3 161 c3
157 3 161 -17 161 -13 0 -21 -6 -21 -17 0 -15 -2 -14 -20 2 -25 22 -98 30
-128 12z m112 -58 c44 -51 31 -136 -24 -159 -79 -33 -134 88 -74 159 15 18 35
31 49 31 14 0 34 -13 49 -31z"/>
<path d="M3958 1788 c-20 -7 -28 -17 -28 -33 0 -23 1 -23 28 -9 15 7 36 14 47
14 28 0 61 -25 68 -50 5 -18 0 -20 -39 -20 -54 0 -109 -21 -123 -48 -18 -34
-13 -79 11 -102 27 -25 103 -27 136 -4 20 14 22 14 22 -1 0 -11 7 -15 23 -13
21 3 22 7 22 98 0 52 -4 108 -8 123 -13 47 -93 70 -159 45z m117 -165 c-10
-41 -34 -63 -70 -63 -35 0 -55 15 -55 41 0 27 40 49 88 49 43 0 44 -1 37 -27z"/>
<path d="M4310 1793 c-8 -3 -23 -12 -32 -21 -16 -14 -18 -13 -18 1 0 11 -8 17
-25 17 l-25 0 0 -190 0 -190 25 0 c24 0 25 2 25 71 l0 70 22 -15 c13 -9 43
-16 69 -16 41 0 51 4 78 35 28 32 31 42 31 101 0 43 -5 73 -16 90 -29 43 -88
64 -134 47z m71 -52 c20 -16 24 -28 24 -79 0 -69 -21 -102 -65 -102 -46 0 -72
29 -78 88 -4 47 -2 54 26 82 35 35 60 38 93 11z"/>
<path d="M4583 1780 c-66 -40 -88 -113 -54 -182 25 -52 65 -78 121 -78 59 0
98 24 121 73 24 54 24 81 -1 133 -33 68 -122 94 -187 54z m100 -31 c49 -22 64
-115 26 -163 -28 -35 -80 -36 -114 -1 -37 37 -35 106 4 146 32 32 47 35 84 18z"/>
<path d="M4926 1779 c-21 -17 -26 -18 -26 -5 0 10 -9 16 -25 16 l-26 0 3 -132
c3 -127 4 -133 24 -136 20 -3 22 2 26 86 5 106 22 142 68 142 25 0 30 4 30 25
0 32 -36 34 -74 4z"/>
<path d="M5113 1786 c-85 -39 -97 -177 -22 -241 24 -20 41 -25 82 -25 77 0 97
8 97 37 0 20 -3 24 -17 17 -10 -4 -36 -9 -59 -12 -32 -3 -46 1 -67 20 -14 12
-27 32 -29 43 -3 19 3 20 95 23 87 2 98 5 93 20 -2 9 -7 31 -11 48 -13 66 -94
101 -162 70z m97 -48 c11 -12 20 -30 20 -40 0 -16 -9 -18 -65 -18 -55 0 -65 3
-65 18 0 22 10 36 35 50 30 17 52 14 75 -10z"/>
<path d="M3130 1655 l0 -135 25 0 25 0 0 135 0 135 -25 0 -25 0 0 -135z"/>
</g>
</svg>
